<?xml version="1.0" standalone="no"?>
<svg xmlns="http://www.w3.org/2000/svg" viewBox="0 0 367.43209533267134 162.51209533267132" width="367.43209533267134" height="162.51209533267132"><rect fill="#8c0404" width="367.43209533267134" height="162.51209533267132" x="0" y="0"></rect><g fill="white" color="white" transform="translate(216.921 23.081) scale(2.770242)"><svg width="50.0" height="42.0" x="0.0" y="0.0" viewBox="0 0 50 42"><path fill="currentColor" fill-rule="evenodd" d="M39.414 17.264v20.7H10.35V17.153c0-.048-.011-.093-.015-.14L24.882 4.829 39.439 17.02c-.01.081-.025.16-.025.244m9.711 3.21L26.03 1.132a1.787 1.787 0 0 0-2.294 0L.639 20.475a1.786 1.786 0 0 0 2.293 2.738l3.845-3.221V39.75c0 .986.8 1.785 1.786 1.785H41.2c.986 0 1.786-.799 1.786-1.785V19.992l3.845 3.22a1.784 1.784 0 0 0 2.516-.223 1.785 1.785 0 0 0-.22-2.514m-25.81 2.38a1.785 1.785 0 1 0 3.13 0 1.371 1.371 0 0 1 2.573.656c0 1.665-2.415 3.67-4.14 4.774-1.723-1.098-4.134-3.098-4.134-4.773a1.371 1.371 0 0 1 2.571-.657m-6.142.657c0 4.623 6.164 8.046 6.867 8.42a1.784 1.784 0 0 0 1.681 0c.703-.374 6.868-3.797 6.868-8.42a4.947 4.947 0 0 0-4.942-4.94 4.932 4.932 0 0 0-2.766.848 4.941 4.941 0 0 0-2.767-.848 4.947 4.947 0 0 0-4.941 4.94"></path></svg></g><path fill="white" fill-rule="nonzero" d="M0 41.84L0 11.60L3.76 11.60Q8.28 11.60 10.96 11.98Q13.64 12.36 15.70 14.32Q17.76 16.28 17.76 20.60L17.76 20.60Q17.76 24.52 16.02 26.54Q14.28 28.56 11.74 29.18Q9.20 29.80 5.88 29.80L5.88 29.80L5.88 41.36L0 41.84ZM5.92 25.04L6.92 25.04Q9.24 25.04 10.58 24.08Q11.92 23.12 11.92 20.56L11.92 20.56Q11.92 18.04 10.68 17.16Q9.44 16.28 6.76 16.28L6.76 16.28L5.92 16.28L5.92 25.04ZM36.40 41.60L21.32 41.60L21.32 11.60L36.56 11.60L36.08 16.28L27.20 16.28L27.20 23.44L33.52 23.44L33.48 28.48L27.20 28.48L27.20 36.92L36.88 36.92L36.40 41.60ZM54.12 42.12L48.76 28.44L46.48 28.44L46.48 41.36L40.64 41.84L40.64 11.84L47.76 11.60Q52.92 11.60 55.84 13.66Q58.76 15.72 58.76 19.96L58.76 19.96Q58.76 22.76 57.66 24.56Q56.56 26.36 54.48 27.56L54.48 27.56L57.16 34.08L59.88 40.56L54.12 42.12ZM46.48 24.12L48.48 24.12Q50.56 24.12 51.74 23.26Q52.92 22.40 52.92 20L52.92 20Q52.92 16.28 49.24 16.28L49.24 16.28L46.48 16.28L46.48 24.12ZM71.96 42.16Q67.48 42.16 65.24 39.28Q63.00 36.40 63.00 31.72L63.00 31.72L63.00 11.84L68.88 11.60L68.88 32.20Q68.88 33.76 69.06 34.84Q69.24 35.92 69.96 36.68Q70.68 37.44 72.16 37.44L72.16 37.44Q73.56 37.44 74.22 36.66Q74.88 35.88 75.04 34.82Q75.20 33.76 75.20 32.12L75.20 32.12L75.20 12.08L80.56 11.60L80.56 31.04Q80.56 35.28 78.90 38.72Q77.24 42.16 71.96 42.16L71.96 42.16ZM79.68 3.80L72.44 9.88L70.36 7.88L75.56 0L79.68 3.80Z" transform="translate(12 12) scale(2.358)"></path><path fill="white" fill-rule="nonzero" d="M9.36 31.12Q4.20 31.12 2.10 26.44Q0 21.76 0 14.92L0 14.92Q0 11.24 0.96 7.84Q1.92 4.44 4.06 2.22Q6.20 0 9.48 0L9.48 0Q12 0 13.90 1.56Q15.80 3.12 16.82 5.62Q17.84 8.12 17.84 10.84L17.84 10.84L12.16 11.12Q12.16 9.32 11.56 7.02Q10.96 4.72 9.16 4.72L9.16 4.72Q7.28 4.72 6.56 7.72Q5.84 10.72 5.84 14.92L5.84 14.92Q5.84 20.12 6.64 23.26Q7.44 26.40 9.72 26.40L9.72 26.40Q11.32 26.40 12 24.50Q12.68 22.60 12.88 19.88L12.88 19.88L17.88 20.36Q17.88 23.24 16.92 25.70Q15.96 28.16 14.04 29.64Q12.12 31.12 9.36 31.12L9.36 31.12ZM30.16 31.12Q25.08 31.12 23.02 26.74Q20.96 22.36 20.96 15.40L20.96 15.40Q20.96 8.00 23.16 4Q25.36 0 30.24 0L30.24 0Q39.56 0 39.56 15.24L39.56 15.24Q39.56 22.08 37.46 26.60Q35.36 31.12 30.16 31.12L30.16 31.12ZM30.24 26.40Q32.36 26.40 33.04 23.62Q33.72 20.84 33.72 15.20L33.72 15.20Q33.72 10.68 33.06 7.70Q32.40 4.72 30.24 4.72L30.24 4.72Q28.08 4.72 27.44 7.68Q26.80 10.64 26.80 15.16L26.80 15.16Q26.80 20.84 27.46 23.62Q28.12 26.40 30.24 26.40L30.24 26.40ZM62.88 30.32L58.04 30.80L49.28 12.04L49.28 30.32L44.04 30.56L44.04 0.80L50.16 0.56L57.92 18.40L57.92 1.04L62.88 0.56L62.88 30.32ZM76.40 31.12Q72.76 31.12 70.26 29.10Q67.76 27.08 66.60 23.68L66.60 23.68L71.56 21.36L72.04 22.16Q73.20 24.16 74.26 25.28Q75.32 26.40 76.92 26.40L76.92 26.40Q77.96 26.40 78.78 25.40Q79.60 24.40 79.60 23.20L79.60 23.20Q79.60 22.08 79.04 21.16Q78.48 20.24 77.60 19.68L77.60 19.68L72.36 16.56Q70.08 15.28 68.72 13.32Q67.36 11.36 67.36 8.92L67.36 8.92Q67.36 6.32 68.58 4.28Q69.80 2.24 71.90 1.12Q74 0 76.64 0L76.64 0Q79.72 0 81.88 1.52Q84.04 3.04 85.08 6.04L85.08 6.04L80.12 8.28Q79.96 7.96 79.44 6.84Q78.92 5.72 78.18 5.22Q77.44 4.72 76.36 4.72L76.36 4.72Q75.04 4.72 74.34 5.56Q73.64 6.40 73.64 7.72L73.64 7.72Q73.64 8.68 74.18 9.46Q74.72 10.24 75.48 10.68L75.48 10.68L80.32 13.52Q85.68 16.56 85.96 21.52L85.96 21.52Q85.96 24.36 84.70 26.54Q83.44 28.72 81.26 29.92Q79.08 31.12 76.40 31.12L76.40 31.12ZM98.52 31.12Q94.04 31.12 91.80 28.24Q89.56 25.36 89.56 20.68L89.56 20.68L89.56 0.80L95.44 0.56L95.44 21.16Q95.44 22.72 95.62 23.80Q95.80 24.88 96.52 25.64Q97.24 26.40 98.72 26.40L98.72 26.40Q100.12 26.40 100.78 25.62Q101.44 24.84 101.60 23.78Q101.76 22.72 101.76 21.08L101.76 21.08L101.76 1.04L107.12 0.56L107.12 20Q107.12 24.24 105.46 27.68Q103.80 31.12 98.52 31.12L98.52 31.12ZM127.60 30.56L112.52 30.56L112.52 1.04L118.36 0.56L118.36 25.88L128.20 25.88L127.60 30.56ZM141 30.32L135.16 30.80L135.16 5.24L129.04 5.24L129.48 0.56L147.08 0.56L146.60 5.24L141 5.24L141 30.32ZM153.28 30.56L148.04 30.56L154.36 0.92L162.72 0.56L169.20 30.32L162.80 30.56L161.72 24.12L154.56 24.12L153.28 30.56ZM157.88 4.96L155.64 19.32L160.64 19.32L157.88 4.96ZM180.36 31.12Q176.72 31.12 174.22 29.10Q171.72 27.08 170.56 23.68L170.56 23.68L175.52 21.36L176.00 22.16Q177.16 24.16 178.22 25.28Q179.28 26.40 180.88 26.40L180.88 26.40Q181.92 26.40 182.74 25.40Q183.56 24.40 183.56 23.20L183.56 23.20Q183.56 22.08 183 21.16Q182.44 20.24 181.56 19.68L181.56 19.68L176.32 16.56Q174.04 15.28 172.68 13.32Q171.32 11.36 171.32 8.92L171.32 8.92Q171.32 6.32 172.54 4.28Q173.76 2.24 175.86 1.12Q177.96 0 180.60 0L180.60 0Q183.68 0 185.84 1.52Q188 3.04 189.04 6.04L189.04 6.04L184.08 8.28Q183.92 7.96 183.40 6.84Q182.88 5.72 182.14 5.22Q181.40 4.72 180.32 4.72L180.32 4.72Q179 4.72 178.30 5.56Q177.60 6.40 177.60 7.72L177.60 7.72Q177.60 8.68 178.14 9.46Q178.68 10.24 179.44 10.68L179.44 10.68L184.28 13.52Q189.64 16.56 189.92 21.52L189.92 21.52Q189.92 24.36 188.66 26.54Q187.40 28.72 185.22 29.92Q183.04 31.12 180.36 31.12L180.36 31.12Z" transform="translate(12 119.393) scale(1)"></path></svg>